# xmcd
#
# Track frame offsets:
#	150
#	13361
#	25580
#	39534
#	55781
#	65712
#	79115
#	92219
#	108420
#	121471
#	139824
#	155554
#	172906
#	183932
#	198639
#	216202
#	236100
#	250084
#	264520
#	276570
#	294255
#	308048
#
# Disc length: 4402 seconds
#
# Revision: 1
# Processed by: cddbd v1.5.2PL0 Copyright (c) Steve Scherf et al.
# Submitted via: EasyCDDAExtractor 16.0.8.2
#
DISCID=44113016
DTITLE=Νταλάρας Γιώργος - Τα χρώματα του χρόνου 2-1
DYEAR=2015
DGENRE=Έντεχνη λαϊκή
TTITLE0=Νταλάρας Γιώργος - Παραπονεμένα λόγια [Γ. Μαρκόπουλος-Μ. Ελευθερίου]
TTITLE1=Νταλάρας Γιώργος - Η μάννα του Αλέξανδρου [Γ. Μαρκόπουλος-Π. Θεοδωρίδη
TTITLE1=ς]
TTITLE2=Νταλάρας Γιώργος - Όμορφη και παράξενη πατρίδα [Δ. Λάγιος-Οδ. Ελύτης]
TTITLE3=Νταλάρας Γιώργος - Οι ελεύθεροι και ωραίοι [Σ. Κουγιουμτζής-Μ. Ελευθερ
TTITLE3=ίου]
TTITLE4=Νταλάρας Γιώργος - Θέλω να τα πω [Άκης Πάνου]
TTITLE5=Νταλάρας Γιώργος - Χαροκόπου 1942-1953 (Στις παράγκες)[Άκης Πάνου]
TTITLE6=Νταλάρας Γιώργος - Εγώ θα σου μιλώ [Χ. Νικολόπουλος-Μ. Μπιζάνη]
TTITLE7=Νταλάρας Γιώργος - Ο τραγουδιστής [Χ. Νικολόπουλος-Μ. Μπιζάνη]
TTITLE8=Νταλάρας Γιώργος - Χαϊδάρι [Μ. Βαμβακάρης-Στ. Βαμβακάρης]
TTITLE9=Νταλάρας Γιώργος - Σαλταδόρος [Μιχ. Γενίτσαρης]
TTITLE10=Νταλάρας Γιώργος - Με τελείωσες [ζωντ. ηχ. Γιάννης Καραλής]
TTITLE11=Νταλάρας Γιώργος - Ξένος για σένανε κι εχθρός [Χ. Νικολόπουλος-Λ. Παπ
TTITLE11=αδόπουλος]
TTITLE12=Νταλάρας Γιώργος - Ταξείδι στα Κύθηρα [Ελ. Καραΐνδρου]
TTITLE13=Νταλάρας Γιώργος-Κατσιμίχας Π.-Kατσιμίχας Χ. - Αν υπάρχει λόγος [Π. Κ
TTITLE13=ατσιμίχας]
TTITLE14=Νταλάρας Γιώργος - Σκόνη [Τερμίτες/Λ. Μαχαιρίτσας-Μ. Μαρματάκης]
TTITLE15=Νταλάρας Γιώργος-Paco De Lucia - El emigrante [S. M. Sanchez-P. S. Ma
TTITLE15=nuel-B. J. Valderama]
TTITLE16=Νταλάρας Γιώργος - Μανουέλα (Huapanco-Huasteco)[Γ. Μουζάκης-Κ. Πρετεν
TTITLE16=τέρης]
TTITLE17=Νταλάρας Γιώργος - Σε μαγικά νησιά (Rumba)[Τ. Μωράκης-Κ. Κοφινιώτης]
TTITLE18=Νταλάρας Γιώργος - Η μπαλάντα των αισθήσεων κ παραισθήσεων[ζ.ηχ., Μ.Χ
TTITLE18=ατζιδάκις-Ά.Δαβαράκης]
TTITLE19=Νταλάρας Γιώργος - Αγάπη [Μ. Θεοδωράκης-Κ. Τριπολίτης]
TTITLE20=Νταλάρας Γιώργος - Τι πάθος [Δημ. Λάγιος]
TTITLE21=Νταλάρας Γιώργος - Όμορφη πόλη [Μ. Θεοδωράκης-Γ. Θεοδωράκης]
EXTD=CD 1
EXTT0=
EXTT1=
EXTT2=
EXTT3=
EXTT4=
EXTT5=
EXTT6=
EXTT7=
EXTT8=
EXTT9=
EXTT10=
EXTT11=
EXTT12=
EXTT13=
EXTT14=
EXTT15=
EXTT16=
EXTT17=
EXTT18=
EXTT19=
EXTT20=
EXTT21=
PLAYORDER=
